<svg width="170" height="40" viewBox="0 0 170 40" fill="none" xmlns="http://www.w3.org/2000/svg">
<path d="M51.176 28H63.128V24.4H55.424V10.84H51.176V28Z" fill="white" fill-opacity="0.53"/>
<path d="M70.2092 25.6C68.5052 25.6 67.6172 24.112 67.6172 21.88C67.6172 19.648 68.5052 18.136 70.2092 18.136C71.9132 18.136 72.8252 19.648 72.8252 21.88C72.8252 24.112 71.9132 25.6 70.2092 25.6ZM70.2332 28.384C74.1932 28.384 76.7852 25.576 76.7852 21.88C76.7852 18.184 74.1932 15.376 70.2332 15.376C66.2972 15.376 63.6572 18.184 63.6572 21.88C63.6572 25.576 66.2972 28.384 70.2332 28.384Z" fill="white" fill-opacity="0.53"/>
<path d="M83.6397 32.248C85.4637 32.248 87.0717 31.84 88.1517 30.88C89.1357 29.992 89.7837 28.648 89.7837 26.8V15.712H86.0397V17.032H85.9917C85.2717 16 84.1677 15.352 82.5357 15.352C79.4877 15.352 77.3757 17.896 77.3757 21.496C77.3757 25.264 79.9437 27.328 82.7037 27.328C84.1917 27.328 85.1277 26.728 85.8477 25.912H85.9437V27.136C85.9437 28.624 85.2477 29.488 83.5917 29.488C82.2957 29.488 81.6477 28.936 81.4317 28.288H77.6397C78.0237 30.856 80.2557 32.248 83.6397 32.248ZM83.6157 24.424C82.1517 24.424 81.1917 23.224 81.1917 21.376C81.1917 19.504 82.1517 18.304 83.6157 18.304C85.2477 18.304 86.1117 19.696 86.1117 21.352C86.1117 23.08 85.3197 24.424 83.6157 24.424Z" fill="white" fill-opacity="0.53"/>
<path d="M97.4819 25.6C95.7779 25.6 94.8899 24.112 94.8899 21.88C94.8899 19.648 95.7779 18.136 97.4819 18.136C99.1859 18.136 100.098 19.648 100.098 21.88C100.098 24.112 99.1859 25.6 97.4819 25.6ZM97.5059 28.384C101.466 28.384 104.058 25.576 104.058 21.88C104.058 18.184 101.466 15.376 97.5059 15.376C93.5699 15.376 90.9299 18.184 90.9299 21.88C90.9299 25.576 93.5699 28.384 97.5059 28.384Z" fill="white" fill-opacity="0.53"/>
<path d="M105.2 28H109.112V15.712H105.2V28ZM105.2 14.008H109.112V10.84H105.2V14.008Z" fill="white" fill-opacity="0.53"/>
<path d="M110.81 32.056H114.722V26.728H114.77C115.538 27.76 116.666 28.384 118.25 28.384C121.466 28.384 123.602 25.84 123.602 21.856C123.602 18.16 121.61 15.352 118.346 15.352C116.666 15.352 115.466 16.096 114.626 17.2H114.554V15.712H110.81V32.056ZM117.242 25.36C115.562 25.36 114.602 23.992 114.602 22C114.602 20.008 115.466 18.496 117.17 18.496C118.85 18.496 119.642 19.888 119.642 22C119.642 24.088 118.73 25.36 117.242 25.36Z" fill="white" fill-opacity="0.53"/>
<path d="M129.971 28.384C133.187 28.384 135.563 26.992 135.563 24.304C135.563 21.16 133.019 20.608 130.859 20.248C129.299 19.96 127.907 19.84 127.907 18.976C127.907 18.208 128.651 17.848 129.611 17.848C130.691 17.848 131.435 18.184 131.579 19.288H135.179C134.987 16.864 133.115 15.352 129.635 15.352C126.731 15.352 124.331 16.696 124.331 19.288C124.331 22.168 126.611 22.744 128.747 23.104C130.379 23.392 131.867 23.512 131.867 24.616C131.867 25.408 131.123 25.84 129.947 25.84C128.651 25.84 127.835 25.24 127.691 24.016H123.995C124.115 26.728 126.371 28.384 129.971 28.384Z" fill="white" fill-opacity="0.53"/>
<path d="M140.877 28.36C142.581 28.36 143.661 27.688 144.549 26.488H144.621V28H148.365V15.712H144.453V22.576C144.453 24.04 143.637 25.048 142.293 25.048C141.045 25.048 140.445 24.304 140.445 22.96V15.712H136.557V23.776C136.557 26.512 138.045 28.36 140.877 28.36Z" fill="white" fill-opacity="0.53"/>
<path d="M150.066 28H153.978V21.112C153.978 19.648 154.698 18.616 155.922 18.616C157.098 18.616 157.65 19.384 157.65 20.704V28H161.562V21.112C161.562 19.648 162.258 18.616 163.506 18.616C164.682 18.616 165.234 19.384 165.234 20.704V28H169.146V20.008C169.146 17.248 167.754 15.352 164.97 15.352C163.386 15.352 162.066 16.024 161.106 17.512H161.058C160.434 16.192 159.21 15.352 157.602 15.352C155.826 15.352 154.65 16.192 153.882 17.464H153.81V15.712H150.066V28Z" fill="white" fill-opacity="0.53"/>
<path fill-rule="evenodd" clip-rule="evenodd" d="M20 40C31.0457 40 40 31.0457 40 20C40 8.95431 31.0457 0 20 0C8.95429 0 0 8.95431 0 20C0 31.0457 8.95429 40 20 40ZM26.2393 9.31684C26.543 8.23805 25.4961 7.60013 24.54 8.2813L11.1931 17.7896C10.1562 18.5283 10.3193 20 11.4381 20H14.9527V19.9728H21.8025L16.2212 21.9421L13.7607 30.6832C13.457 31.762 14.5038 32.3999 15.46 31.7187L28.8069 22.2105C29.8438 21.4718 29.6806 20 28.5619 20H23.2321L26.2393 9.31684Z" fill="white" fill-opacity="0.53"/>
</svg>
