<svg width="167" height="40" viewBox="0 0 167 40" fill="none" xmlns="http://www.w3.org/2000/svg">
<path d="M48.9602 28.0294H60.9122V24.4294H53.2082V10.8694H48.9602V28.0294Z" fill="white" fill-opacity="0.53"/>
<path d="M67.9934 25.6293C66.2894 25.6293 65.4014 24.1413 65.4014 21.9093C65.4014 19.6773 66.2894 18.1653 67.9934 18.1653C69.6974 18.1653 70.6094 19.6773 70.6094 21.9093C70.6094 24.1413 69.6974 25.6293 67.9934 25.6293ZM68.0174 28.4133C71.9774 28.4133 74.5694 25.6053 74.5694 21.9093C74.5694 18.2133 71.9774 15.4053 68.0174 15.4053C64.0814 15.4053 61.4414 18.2133 61.4414 21.9093C61.4414 25.6053 64.0814 28.4133 68.0174 28.4133Z" fill="white" fill-opacity="0.53"/>
<path d="M81.4237 32.2773C83.2477 32.2773 84.8557 31.8693 85.9357 30.9093C86.9197 30.0213 87.5677 28.6773 87.5677 26.8293V15.7413H83.8237V17.0613H83.7757C83.0557 16.0293 81.9517 15.3813 80.3197 15.3813C77.2717 15.3813 75.1597 17.9253 75.1597 21.5253C75.1597 25.2933 77.7277 27.3573 80.4877 27.3573C81.9757 27.3573 82.9117 26.7573 83.6317 25.9413H83.7277V27.1653C83.7277 28.6533 83.0317 29.5173 81.3757 29.5173C80.0797 29.5173 79.4317 28.9653 79.2157 28.3173H75.4237C75.8077 30.8853 78.0397 32.2773 81.4237 32.2773ZM81.3997 24.4533C79.9357 24.4533 78.9757 23.2533 78.9757 21.4053C78.9757 19.5333 79.9357 18.3333 81.3997 18.3333C83.0317 18.3333 83.8957 19.7253 83.8957 21.3813C83.8957 23.1093 83.1037 24.4533 81.3997 24.4533Z" fill="white" fill-opacity="0.53"/>
<path d="M95.2661 25.6293C93.5621 25.6293 92.6741 24.1413 92.6741 21.9093C92.6741 19.6773 93.5621 18.1653 95.2661 18.1653C96.9701 18.1653 97.8821 19.6773 97.8821 21.9093C97.8821 24.1413 96.9701 25.6293 95.2661 25.6293ZM95.2901 28.4133C99.2501 28.4133 101.842 25.6053 101.842 21.9093C101.842 18.2133 99.2501 15.4053 95.2901 15.4053C91.3541 15.4053 88.7141 18.2133 88.7141 21.9093C88.7141 25.6053 91.3541 28.4133 95.2901 28.4133Z" fill="white" fill-opacity="0.53"/>
<path d="M102.985 28.0294H106.897V15.7414H102.985V28.0294ZM102.985 14.0374H106.897V10.8694H102.985V14.0374Z" fill="white" fill-opacity="0.53"/>
<path d="M108.594 32.0853H112.506V26.7573H112.554C113.322 27.7893 114.45 28.4133 116.034 28.4133C119.25 28.4133 121.386 25.8693 121.386 21.8853C121.386 18.1893 119.394 15.3813 116.13 15.3813C114.45 15.3813 113.25 16.1253 112.41 17.2293H112.338V15.7413H108.594V32.0853ZM115.026 25.3893C113.346 25.3893 112.386 24.0213 112.386 22.0293C112.386 20.0373 113.25 18.5253 114.954 18.5253C116.634 18.5253 117.426 19.9173 117.426 22.0293C117.426 24.1173 116.514 25.3893 115.026 25.3893Z" fill="white" fill-opacity="0.53"/>
<path d="M127.755 28.4133C130.971 28.4133 133.347 27.0213 133.347 24.3333C133.347 21.1893 130.803 20.6373 128.643 20.2773C127.083 19.9893 125.691 19.8693 125.691 19.0053C125.691 18.2373 126.435 17.8773 127.395 17.8773C128.475 17.8773 129.219 18.2133 129.363 19.3173H132.963C132.771 16.8933 130.899 15.3813 127.419 15.3813C124.515 15.3813 122.115 16.7253 122.115 19.3173C122.115 22.1973 124.395 22.7733 126.531 23.1333C128.163 23.4213 129.651 23.5413 129.651 24.6453C129.651 25.4373 128.907 25.8693 127.731 25.8693C126.435 25.8693 125.619 25.2693 125.475 24.0453H121.779C121.899 26.7573 124.155 28.4133 127.755 28.4133Z" fill="white" fill-opacity="0.53"/>
<path d="M138.661 28.3894C140.365 28.3894 141.445 27.7174 142.333 26.5174H142.405V28.0294H146.149V15.7414H142.237V22.6054C142.237 24.0694 141.421 25.0774 140.077 25.0774C138.829 25.0774 138.229 24.3334 138.229 22.9894V15.7414H134.341V23.8054C134.341 26.5414 135.829 28.3894 138.661 28.3894Z" fill="white" fill-opacity="0.53"/>
<path d="M147.851 28.0293H151.763V21.1413C151.763 19.6773 152.483 18.6453 153.707 18.6453C154.883 18.6453 155.435 19.4133 155.435 20.7333V28.0293H159.347V21.1413C159.347 19.6773 160.043 18.6453 161.291 18.6453C162.467 18.6453 163.019 19.4133 163.019 20.7333V28.0293H166.931V20.0373C166.931 17.2773 165.539 15.3813 162.755 15.3813C161.171 15.3813 159.851 16.0533 158.891 17.5413H158.843C158.219 16.2213 156.995 15.3813 155.387 15.3813C153.611 15.3813 152.435 16.2213 151.667 17.4933H151.595V15.7413H147.851V28.0293Z" fill="white" fill-opacity="0.53"/>
<path d="M25.0925 1.05386L21.1595 0L17.8451 12.3696L14.8528 1.20224L10.9197 2.2561L14.1527 14.3216L6.10008 6.26898L3.22089 9.14817L12.0536 17.981L1.05386 15.0336L0 18.9666L12.0186 22.187C11.881 21.5935 11.8082 20.9751 11.8082 20.3397C11.8082 15.8421 15.4542 12.1961 19.9518 12.1961C24.4494 12.1961 28.0954 15.8421 28.0954 20.3397C28.0954 20.971 28.0235 21.5856 27.8876 22.1756L38.8103 25.1023L39.8641 21.1693L27.7977 17.9361L38.7982 14.9885L37.7443 11.0555L25.6784 14.2885L33.731 6.23592L30.8518 3.35673L22.1416 12.067L25.0925 1.05386Z" fill="white" fill-opacity="0.53"/>
<path d="M27.877 22.2214C27.5398 23.647 26.8279 24.9277 25.8511 25.9538L33.7641 33.8669L36.6433 30.9877L27.877 22.2214Z" fill="white" fill-opacity="0.53"/>
<path d="M25.771 26.0366C24.7824 27.0463 23.5331 27.7998 22.1321 28.1881L25.0115 38.9341L28.9445 37.8802L25.771 26.0366Z" fill="white" fill-opacity="0.53"/>
<path d="M21.9852 28.2274C21.3352 28.3945 20.6539 28.4833 19.9518 28.4833C19.1996 28.4833 18.4712 28.3813 17.7797 28.1904L14.8977 38.9462L18.8307 40L21.9852 28.2274Z" fill="white" fill-opacity="0.53"/>
<path d="M17.6406 28.1506C16.261 27.743 15.0339 26.9799 14.0655 25.9673L6.13306 33.8998L9.01225 36.779L17.6406 28.1506Z" fill="white" fill-opacity="0.53"/>
<path d="M13.9994 25.8973C13.0476 24.8783 12.3543 23.6147 12.0243 22.2111L1.06592 25.1474L2.11977 29.0804L13.9994 25.8973Z" fill="white" fill-opacity="0.53"/>
</svg>
